<?xml version="1.0" standalone="no"?>
<!DOCTYPE svg PUBLIC "-//W3C//DTD SVG 20010904//EN"
 "http://www.w3.org/TR/2001/REC-SVG-20010904/DTD/svg10.dtd">
<svg version="1.0" xmlns="http://www.w3.org/2000/svg"
 width="1158.000000pt" height="1280.000000pt" viewBox="0 0 1158.000000 1280.000000"
 preserveAspectRatio="xMidYMid meet">
<metadata>
Created by potrace 1.15, written by Peter Selinger 2001-2017
</metadata>
<g transform="translate(0.000000,1280.000000) scale(0.100000,-0.100000)"
fill="#000000" stroke="none">
<path d="M2140 12785 c-25 -8 -86 -19 -137 -24 -50 -5 -104 -16 -121 -25 -16
-8 -74 -33 -130 -55 -55 -22 -165 -76 -244 -121 -79 -44 -149 -80 -156 -80
-19 0 -208 -83 -298 -132 -125 -66 -245 -187 -411 -409 -139 -187 -160 -219
-205 -317 -23 -47 -56 -109 -74 -138 -18 -28 -56 -107 -85 -175 -49 -118 -63
-162 -88 -289 -7 -30 -16 -73 -21 -95 -15 -68 -43 -704 -44 -1025 -1 -261 1
-313 16 -360 9 -30 27 -122 38 -205 12 -82 33 -192 47 -245 35 -129 41 -203
42 -495 1 -265 -3 -296 -48 -415 -20 -51 -33 -110 -40 -185 -6 -60 -19 -157
-28 -215 -16 -107 -22 -387 -13 -570 4 -85 3 -100 -17 -137 -13 -24 -32 -60
-43 -80 -11 -21 -26 -81 -34 -133 -8 -52 -20 -131 -27 -175 -21 -130 -18 -180
19 -274 18 -46 51 -111 73 -146 32 -51 39 -71 39 -112 0 -40 -30 -191 -74
-373 -4 -14 -10 -65 -15 -114 l-9 -90 47 -61 c26 -34 58 -88 71 -121 28 -72
37 -84 61 -84 28 0 47 38 63 126 7 44 23 99 35 122 27 54 27 104 -4 199 -14
43 -25 102 -25 131 0 54 19 114 40 127 17 11 72 -47 116 -123 22 -37 60 -92
87 -124 48 -58 160 -158 178 -158 17 0 9 38 -31 138 -22 54 -40 106 -40 114 0
8 -36 75 -80 149 -44 74 -86 152 -92 174 -6 22 -22 55 -36 73 -15 21 -29 61
-38 113 -7 43 -25 122 -38 174 -28 105 -26 122 20 182 39 52 61 59 91 31 28
-26 93 -132 93 -152 0 -7 9 -21 20 -31 11 -10 20 -24 20 -30 0 -7 13 -44 29
-83 34 -82 110 -199 194 -296 33 -38 75 -94 95 -125 78 -123 202 -274 358
-438 111 -116 164 -179 164 -194 0 -26 -35 -242 -51 -314 -16 -70 -88 -243
-153 -366 -30 -57 -64 -133 -76 -168 -11 -35 -27 -73 -35 -85 -7 -11 -21 -48
-30 -80 -19 -66 -15 -174 9 -250 8 -22 17 -56 20 -75 9 -52 63 -141 175 -290
81 -109 148 -181 351 -378 138 -134 255 -243 261 -243 6 0 34 -24 64 -53 33
-32 114 -88 214 -147 289 -170 394 -273 505 -495 l35 -70 -33 -101 c-38 -113
-62 -164 -147 -310 -33 -55 -59 -106 -59 -111 0 -6 -15 -33 -34 -61 -19 -27
-62 -103 -94 -169 -63 -125 -97 -164 -175 -205 -79 -40 -232 -90 -303 -98 -39
-4 -85 -15 -101 -23 -50 -26 -175 -67 -204 -67 -43 0 -128 -41 -191 -93 -32
-26 -80 -56 -108 -66 -115 -44 -201 -120 -267 -238 -19 -35 -39 -66 -45 -69
-6 -4 -40 -8 -78 -9 -37 -2 -80 -10 -96 -18 -16 -8 -49 -18 -74 -22 -111 -18
-195 -68 -174 -103 29 -46 123 -85 284 -117 41 -9 92 -21 113 -27 30 -9 43 -9
58 0 14 9 26 9 51 -2 58 -25 188 -49 229 -42 26 4 49 1 69 -9 17 -9 55 -15 94
-15 36 0 68 -4 71 -10 3 -5 40 -10 81 -10 43 0 86 -6 102 -14 15 -7 69 -18
120 -25 89 -11 142 -27 142 -41 0 -12 54 -19 61 -8 4 6 28 4 69 -6 34 -9 65
-14 70 -11 4 3 24 -2 43 -10 31 -13 132 -27 299 -41 32 -2 79 -9 105 -15 158
-34 830 -43 1243 -16 306 20 503 34 660 47 333 29 890 37 1015 15 70 -13 98
-9 113 14 24 35 30 24 25 -46 -3 -55 1 -79 19 -123 20 -47 27 -55 48 -54 260
16 436 43 570 89 48 16 109 28 167 32 l93 6 63 -65 c75 -77 112 -92 267 -108
58 -6 116 -14 128 -17 13 -3 58 5 100 18 71 22 83 30 149 97 60 62 74 72 90
64 38 -21 718 -61 735 -44 7 7 6 22 -2 47 -7 20 -9 39 -6 42 3 3 29 -8 57 -26
56 -34 69 -33 69 7 0 34 -26 91 -98 217 -70 122 -185 242 -260 270 -102 38
-182 89 -305 196 -23 19 -59 48 -80 64 -21 16 -55 53 -75 83 -56 83 -130 224
-131 249 -1 12 -14 43 -30 68 -16 26 -35 70 -42 98 -7 29 -29 88 -51 131 -21
44 -38 89 -38 100 0 12 -9 50 -21 86 -52 166 -58 197 -69 353 -12 163 -38 276
-85 367 -9 17 -93 106 -186 197 -168 165 -221 230 -235 288 -4 17 -15 46 -24
65 -30 61 -90 247 -96 297 -22 197 -94 503 -140 595 -19 37 -34 76 -34 85 0
10 -31 82 -70 160 -38 78 -70 146 -70 151 0 9 43 4 135 -17 145 -32 198 -41
238 -41 25 0 61 -7 81 -15 90 -38 472 -105 594 -105 26 0 81 -4 122 -10 41 -5
116 -15 165 -20 50 -6 151 -17 225 -26 170 -20 592 -14 1110 15 195 11 510 25
700 31 294 9 370 8 515 -5 455 -42 642 -81 832 -171 78 -37 100 -54 143 -105
50 -60 80 -108 80 -129 0 -7 13 -42 29 -78 37 -84 56 -228 48 -361 -4 -74 -14
-120 -42 -201 -88 -256 -109 -413 -71 -527 32 -95 160 -264 188 -247 7 5 8 32
3 88 -5 44 -9 133 -9 196 l-1 115 47 95 c26 52 95 163 153 245 193 270 210
313 209 520 0 191 -18 261 -117 465 -139 283 -313 462 -710 729 -59 39 -149
94 -200 121 -175 94 -362 187 -401 200 -22 7 -53 21 -70 31 -139 80 -655 260
-831 288 -38 7 -117 23 -175 37 -58 14 -134 29 -169 34 -36 5 -99 18 -140 29
-42 11 -123 33 -181 47 -331 84 -398 103 -715 209 -126 42 -157 53 -350 128
-198 77 -398 165 -475 209 -8 5 -47 24 -86 42 -99 48 -353 192 -451 257 -45
30 -117 74 -160 98 -43 24 -112 65 -153 91 -41 26 -142 90 -225 141 -231 143
-242 152 -260 212 -8 28 -22 120 -30 204 -23 229 -62 333 -206 547 -74 111
-323 379 -441 475 -197 161 -410 281 -496 281 -18 0 -41 4 -51 10 -29 15 -137
30 -291 40 -154 10 -205 22 -273 68 -23 15 -53 33 -67 39 -30 13 -119 86 -362
297 -100 87 -189 163 -198 170 -24 18 -41 54 -29 61 12 8 268 -11 353 -26 33
-6 102 -28 155 -49 53 -21 123 -46 157 -54 34 -9 85 -27 115 -40 117 -54 389
-90 499 -67 63 13 146 50 175 77 11 11 40 34 65 52 114 82 251 297 252 395 1
54 -11 72 -58 87 -32 11 -34 14 -34 60 0 26 -7 64 -15 83 -8 20 -15 48 -15 62
0 15 -6 25 -14 25 -16 0 -26 -21 -26 -55 0 -30 -10 -55 -21 -55 -5 0 -9 11 -9
24 0 36 -17 41 -36 11 -23 -36 -34 -31 -34 15 0 52 -22 53 -47 3 -18 -39 -55
-55 -75 -35 -6 6 -14 76 -18 157 -4 81 -12 151 -18 157 -14 14 -37 -23 -62
-102 -32 -105 -40 -106 -40 -7 0 54 -4 87 -11 87 -5 0 -22 -26 -37 -57 l-27
-58 -10 60 c-11 64 -30 78 -51 38 -15 -31 -24 -18 -24 36 0 25 -4 53 -10 61
-7 12 -12 12 -29 -4 -19 -17 -20 -17 -51 25 -28 39 -29 44 -15 58 11 11 35 16
81 16 37 0 68 5 72 11 12 20 76 54 101 54 19 0 22 -4 19 -22 -3 -13 -11 -51
-19 -85 -7 -34 -10 -65 -6 -69 10 -11 37 16 74 74 30 47 36 52 51 40 36 -28
41 -42 35 -95 -3 -31 -2 -53 4 -53 15 0 57 49 98 113 43 68 63 80 83 49 18
-27 34 -28 57 -2 11 12 28 20 39 18 18 -3 22 -12 26 -72 3 -42 10 -71 17 -73
7 -3 35 30 62 74 91 143 91 143 100 21 5 -74 8 -83 26 -83 15 0 27 20 57 95
21 52 38 104 38 115 0 11 21 51 48 89 l47 69 -1 211 0 211 -41 160 c-23 88
-44 180 -48 205 -10 60 -93 219 -158 302 -155 198 -210 252 -274 272 -12 4
-52 31 -90 61 -37 30 -104 74 -148 97 -44 24 -103 64 -132 90 -72 65 -85 70
-148 63 -60 -8 -55 -13 -69 75 -4 20 -23 64 -44 99 -58 100 -67 103 -407 112
-273 8 -348 15 -410 39 -34 13 -145 82 -189 118 -45 36 -101 62 -184 83 -42
11 -99 30 -127 44 -89 43 -126 55 -174 55 -26 0 -51 4 -57 9 -9 9 -49 25 -209
82 -66 23 -96 28 -170 28 -49 0 -110 -7 -135 -14z m657 -8175 c53 -42 96 -101
158 -214 53 -97 96 -141 163 -167 54 -20 68 -21 257 -15 346 12 423 21 554 65
186 63 371 113 442 118 53 4 85 0 158 -21 151 -43 161 -51 194 -144 32 -93
224 -433 305 -542 31 -41 108 -127 171 -190 63 -63 165 -173 226 -245 119
-137 173 -190 298 -293 80 -65 182 -177 247 -272 21 -30 64 -86 95 -125 32
-40 84 -126 121 -200 64 -126 66 -133 71 -226 6 -108 -4 -185 -48 -335 -16
-56 -29 -124 -29 -152 0 -79 22 -255 33 -270 16 -20 44 13 52 59 4 21 11 42
17 45 7 5 9 -46 5 -162 -4 -130 -10 -185 -25 -239 -12 -38 -23 -82 -26 -96 -3
-14 -17 -41 -30 -60 -14 -19 -42 -59 -63 -89 -63 -94 -92 -119 -160 -140 -34
-10 -76 -26 -94 -35 -29 -15 -32 -15 -43 1 -12 16 -51 18 -437 26 -484 9 -688
22 -879 57 -192 35 -235 41 -340 52 -63 6 -133 15 -155 19 -22 5 -69 10 -105
10 -36 0 -92 7 -125 15 -77 19 -394 39 -506 33 l-86 -5 29 76 c54 140 67 221
77 467 5 126 15 246 21 267 15 52 38 45 71 -21 29 -60 52 -87 67 -78 5 3 12
30 14 60 3 40 12 65 34 93 33 44 32 30 20 333 -7 185 -6 216 13 320 47 258 22
357 -145 582 -34 46 -98 124 -143 173 -154 168 -183 220 -318 560 -31 77 -69
179 -84 228 -31 94 -71 180 -136 292 -87 150 -173 313 -173 327 0 20 24 40 85
71 69 36 94 34 152 -13z"/>
</g>
</svg>
